<?xml version="1.0" standalone="no"?><!DOCTYPE svg PUBLIC "-//W3C//DTD SVG 1.1//EN" "http://www.w3.org/Graphics/SVG/1.1/DTD/svg11.dtd"><svg t="1716711156233" class="icon" viewBox="0 0 1024 1024" version="1.1" xmlns="http://www.w3.org/2000/svg" p-id="2945" data-spm-anchor-id="a313x.search_index.0.i5.72cd3a81COMKQX" xmlns:xlink="http://www.w3.org/1999/xlink" width="22" height="22"><path d="M875.75000029 797.00000029c-0.93750029-4.68749971-0.93750029-9.37500029-1.87500058-15.00000029-1.87499971-15.00000029-7.49999971-27.18749971-14.99999942-36.5625s-16.875-17.81250029-27.18750058-24.37499971c-11.25-7.49999971-23.43750029-13.12499971-35.62499971-16.875-13.12499971-3.75000029-26.25000029-8.4375-40.31250029-12.18750029s-27.18749971-8.4375-40.31249942-12.18750029c-13.12499971-4.68749971-24.37499971-10.31249971-35.62500058-16.875-12.18750029-7.49999971-21.56249971-15.00000029-28.125-21.56249971-4.68749971-5.625-9.37500029-11.25-13.12499971-18.74999971-1.87499971-3.75000029-2.8125-6.56250029-3.75000029-10.31250058-1.87499971-5.625-2.8125-10.31249971-2.8125-15.93749971 0-7.49999971 0-16.875 0.93750029-26.25000029 0.93750029-12.18750029 5.625-23.43750029 14.0625-32.81249971 5.625-5.625 11.25-10.31249971 16.875-15.00000029 3.75000029-2.8125 8.4375-5.625 12.18750029-9.37499942 5.625-4.68749971 9.37500029-11.25 13.12499971-17.81250029 3.75000029-7.49999971 6.56250029-15.00000029 10.31249971-22.5 1.87499971-5.625 4.68749971-12.18750029 7.50000058-17.81250029 1.87499971-2.8125 2.8125-6.56250029 3.74999942-10.31249971 6.56250029-19.6875 10.31249971-35.62499971 13.12500058-50.625 3.75000029-17.81250029 5.625-35.62499971 7.49999971-59.0625 0.93750029-43.12500029-4.68749971-86.24999971-16.875-127.50000029 0-0.93750029-0.93750029-2.8125-0.93750029-3.74999942-4.68749971-19.6875-13.12499971-37.50000029-24.37499971-54.37500029-0.93750029-0.93750029-1.87499971-2.8125-2.8125-3.75000029l-0.93750029-0.93749942c-0.93750029-1.87499971-2.8125-3.75000029-3.74999942-5.625-1.87499971-1.87499971-2.8125-3.75000029-4.68750058-6.56250029l-0.93749942-0.93750029c-9.37500029-11.25-18.74999971-20.62500029-29.06250029-28.125-14.0625-10.31249971-28.125-18.74999971-43.12500029-24.37499971C588.87500029 71.37500029 573.875 67.625 558.87499971 64.8125 543.87500029 62.93750029 529.81250029 62 516.68749971 62h-9.37499942c-14.0625 0-28.125 0.93750029-42.1875 2.8125-15.00000029 1.87499971-29.99999971 6.56250029-44.06250058 12.18750029-15.00000029 5.625-29.06250029 14.0625-43.12499942 24.37499971-10.31249971 7.49999971-19.6875 16.875-29.06250029 28.125l-0.93750029 0.93750029c-1.87499971 1.87499971-2.8125 3.75000029-4.68749971 6.56249942-0.93750029 1.87499971-2.8125 3.75000029-3.75000029 5.625l-0.93749942 0.93750029c-0.93750029 0.93750029-1.87499971 2.8125-2.8125 3.75000029-11.25 16.875-19.6875 34.68750029-24.37500058 54.37499942 0 0.93750029-0.93750029 2.8125-0.93749942 3.75000029-12.18750029 41.24999971-17.81250029 84.375-16.875 127.50000029 0.93750029 23.43750029 3.75000029 41.24999971 7.49999971 59.0625 2.8125 15.00000029 6.56250029 31.87500029 13.12499971 50.625 0.93750029 3.75000029 2.8125 6.56250029 3.75000029 10.31249971 2.8125 6.56250029 5.625 12.18750029 7.49999971 17.81250029 2.8125 7.49999971 6.56250029 15.00000029 10.31250058 22.5 2.8125 6.56250029 7.49999971 13.12499971 13.12499971 17.81249942 3.75000029 2.8125 8.4375 6.56250029 12.18750029 9.37500029 5.625 4.68749971 11.25 10.31249971 16.875 15.00000029 8.4375 9.37500029 13.12499971 20.62500029 14.0625 32.81249971 0.93750029 9.37500029 0.93750029 17.81250029 0.93749942 26.25000029 0 4.68749971-0.93750029 9.37500029-1.87499971 14.0625v1.87499971c-0.93750029 3.75000029-2.8125 6.56250029-3.75000029 10.31249971-1.87499971 2.8125-2.8125 4.68749971-4.68749971 7.50000058-0.93750029 1.87499971-2.8125 3.75000029-3.75000029 5.625-0.93750029 1.87499971-2.8125 3.75000029-3.74999942 4.68749971-6.56250029 6.56250029-15.93749971 14.0625-28.125 21.56249971-10.31249971 6.56250029-22.5 12.18750029-35.62500058 16.875s-26.25000029 8.4375-40.31249942 12.18750029-27.18749971 8.4375-40.31250029 12.18750029c-12.18750029 3.75000029-24.37499971 9.37500029-35.62499971 16.875-11.25 6.56250029-19.6875 15.00000029-27.18750058 24.37499971-7.49999971 9.37500029-12.18750029 21.56249971-14.99999942 36.5625C144.50000029 821.375 142.62499971 853.25000029 146.375 877.625c2.8125 24.37499971 8.4375 39.375 15.00000029 44.06249971 3.75000029 2.8125 12.18750029 5.625 26.24999942 9.37500029 14.0625 2.8125 30.9375 5.625 50.625 9.37500029 21.56249971 2.8125 44.06249971 5.625 65.62500029 8.4375 24.37499971 2.8125 48.75000029 4.68749971 73.125 7.49999971 14.0625 0.93750029 27.18749971 1.87499971 41.24999971 2.8125 10.31249971 0.93750029 19.6875 0.93750029 30.00000058 1.87499971h31.87499942c11.25 0 22.5 0.93750029 33.75 0.93750029 11.25 0 22.5 0 33.75-0.93750029h31.87500029c10.31249971-0.93750029 19.6875-0.93750029 29.99999971-1.87499971 14.0625-0.93750029 27.18749971-1.87499971 41.25000058-2.8125 24.37499971-1.87499971 48.75000029-4.68749971 73.125-7.49999971 21.56249971-2.8125 44.06249971-5.625 65.62499942-8.4375 19.6875-2.8125 36.5625-5.625 50.625-9.37500029 14.0625-2.8125 22.5-5.625 26.25000029-9.37500029 6.56250029-4.68749971 11.25-19.6875 15.00000029-44.06249971-0.93750029-21.56249971-1.87499971-48.75000029-5.625-80.62499971z" p-id="2946" fill="#1296db" data-spm-anchor-id="a313x.search_index.0.i4.72cd3a81COMKQX" class=""></path></svg>